<svg width="25" height="25" viewBox="0 0 25 25" fill="none" xmlns="http://www.w3.org/2000/svg">
<path d="M16.3771 9.82081C15.812 8.84308 14.953 8.08438 13.9317 7.66108C12.9104 7.23777 11.7833 7.17323 10.7232 7.47735C9.66313 7.78147 8.72861 8.43747 8.06299 9.34472C7.39736 10.252 7.03739 11.3604 7.03827 12.5C7.03739 13.6396 7.39736 14.748 8.06299 15.6552C8.72861 16.5625 9.66313 17.2185 10.7232 17.5226C11.7833 17.8267 12.9104 17.7622 13.9317 17.3389C14.953 16.9156 15.812 16.1569 16.3771 15.1791L14.6527 14.1083C14.3813 14.5767 13.9962 14.9632 13.5357 15.2292C13.0752 15.4953 12.5554 15.6317 12.0282 15.6247C11.5009 15.6178 10.9847 15.4678 10.5308 15.1897C10.077 14.9116 9.70144 14.5151 9.44163 14.0398C9.18183 13.5644 9.04683 13.0268 9.0501 12.4806C9.05338 11.9343 9.19481 11.3985 9.4603 10.9265C9.72578 10.4546 10.106 10.0629 10.5632 9.79071C11.0203 9.51847 11.5383 9.37513 12.0656 9.37498C13.1646 9.37498 14.1268 9.98331 14.6527 10.8927L16.3771 9.82081ZM22.1203 12.5C22.1203 6.74998 17.6158 2.08331 12.0656 2.08331C6.51543 2.08331 2.01093 6.74998 2.01093 12.5C2.01093 18.25 6.51543 22.9166 12.0656 22.9166C17.6158 22.9166 22.1203 18.25 22.1203 12.5ZM4.02186 12.5C4.02186 7.89581 7.62145 4.16665 12.0656 4.16665C16.5098 4.16665 20.1094 7.89581 20.1094 12.5C20.1094 17.1041 16.5098 20.8333 12.0656 20.8333C7.62145 20.8333 4.02186 17.1041 4.02186 12.5Z" fill="#A3A3A3"/>
</svg>
