<svg width="40" height="40" viewBox="0 0 40 40" fill="none" xmlns="http://www.w3.org/2000/svg">
<path d="M20 25.8333C18.4529 25.8333 16.9691 25.2188 15.8752 24.1248C14.7812 23.0308 14.1666 21.5471 14.1666 20C14.1666 18.4529 14.7812 16.9692 15.8752 15.8752C16.9691 14.7813 18.4529 14.1667 20 14.1667C21.5471 14.1667 23.0308 14.7813 24.1248 15.8752C25.2187 16.9692 25.8333 18.4529 25.8333 20C25.8333 21.5471 25.2187 23.0308 24.1248 24.1248C23.0308 25.2188 21.5471 25.8333 20 25.8333ZM32.3833 21.6167C32.45 21.0833 32.5 20.55 32.5 20C32.5 19.45 32.45 18.9 32.3833 18.3333L35.9 15.6167C36.2166 15.3667 36.3 14.9167 36.1 14.55L32.7666 8.78335C32.5666 8.41668 32.1166 8.26668 31.75 8.41668L27.6 10.0833C26.7333 9.43335 25.8333 8.86668 24.7833 8.45001L24.1666 4.03335C24.1328 3.83704 24.0305 3.65906 23.878 3.53093C23.7255 3.40281 23.5325 3.33281 23.3333 3.33335H16.6666C16.25 3.33335 15.9 3.63335 15.8333 4.03335L15.2166 8.45001C14.1666 8.86668 13.2666 9.43335 12.4 10.0833L8.24998 8.41668C7.88331 8.26668 7.43331 8.41668 7.23331 8.78335L3.89998 14.55C3.68331 14.9167 3.78331 15.3667 4.09998 15.6167L7.61664 18.3333C7.54998 18.9 7.49998 19.45 7.49998 20C7.49998 20.55 7.54998 21.0833 7.61664 21.6167L4.09998 24.3833C3.78331 24.6333 3.68331 25.0833 3.89998 25.45L7.23331 31.2167C7.43331 31.5833 7.88331 31.7167 8.24998 31.5833L12.4 29.9C13.2666 30.5667 14.1666 31.1333 15.2166 31.55L15.8333 35.9667C15.9 36.3667 16.25 36.6667 16.6666 36.6667H23.3333C23.75 36.6667 24.1 36.3667 24.1666 35.9667L24.7833 31.55C25.8333 31.1167 26.7333 30.5667 27.6 29.9L31.75 31.5833C32.1166 31.7167 32.5666 31.5833 32.7666 31.2167L36.1 25.45C36.3 25.0833 36.2166 24.6333 35.9 24.3833L32.3833 21.6167Z" fill="#2779A7"/>
</svg>
