<svg width="20" height="20" viewBox="0 0 20 20" fill="none" xmlns="http://www.w3.org/2000/svg">
<path d="M14.0426 12.5786H13.1666L12.8561 12.2699C13.9803 10.9251 14.5982 9.20834 14.597 7.43282C14.597 5.96275 14.1743 4.52569 13.3823 3.30337C12.5903 2.08105 11.4646 1.12837 10.1476 0.565793C8.83061 0.00322052 7.38141 -0.143974 5.98327 0.142823C4.58514 0.42962 3.30087 1.13753 2.29287 2.17702C1.28487 3.21652 0.598419 4.54092 0.320313 5.98275C0.0422068 7.42457 0.184941 8.91907 0.730466 10.2772C1.27599 11.6354 2.1998 12.7963 3.38508 13.613C4.57037 14.4297 5.96388 14.8656 7.3894 14.8656C9.17466 14.8656 10.8158 14.191 12.0799 13.0703L12.3793 13.3905V14.2939L17.9236 20L19.5758 18.2962L14.0426 12.5786ZM7.3894 12.5786C4.62834 12.5786 2.39954 10.2802 2.39954 7.43282C2.39954 4.58548 4.62834 2.28702 7.3894 2.28702C10.1505 2.28702 12.3793 4.58548 12.3793 7.43282C12.3793 10.2802 10.1505 12.5786 7.3894 12.5786Z" fill="#A3A3A3"/>
</svg>
